<?xml version="1.0" encoding="iso-8859-1"?>
<!-- Generator: Adobe Illustrator 19.0.0, SVG Export Plug-In . SVG Version: 6.00 Build 0)  -->
<svg version="1.1" id="Layer_1" xmlns="http://www.w3.org/2000/svg" xmlns:xlink="http://www.w3.org/1999/xlink" x="0px" y="0px"
	 viewBox="0 0 511.664 511.664" style="enable-background:new 0 0 511.664 511.664;" xml:space="preserve">
<g>
	<g>
		<path d="M309.426,419.204c0-81.04-31.684-120.468-65.224-162.212c-32.436-40.368-65.968-82.092-65.968-164.304
			c0-29.456,4.164-54.984,12.828-78.848c-78.608,34.504-135.28,129.908-135.28,241.992c0,141.072,89.744,255.832,200.048,255.832
			c13.532,0,26.744-1.748,39.524-5.032c-0.5-2.22-0.388-4.608,0.484-6.896C304.982,475.656,309.426,449.316,309.426,419.204z"/>
	</g>
</g>
<g>
	<g>
		<path d="M255.83,0c-11.832,0-23.408,1.4-34.68,3.928c-0.124,0.328-0.208,0.664-0.364,0.988
			c-12.656,26.08-18.552,53.968-18.552,87.768c0,73.764,28.112,108.752,60.664,149.256c33.064,41.148,70.528,87.772,70.528,177.256
			c0,28.572-3.724,54.196-11.304,77.964c77.816-35.064,133.76-129.976,133.76-241.336C455.886,114.764,366.142,0,255.83,0z"/>
	</g>
</g>
<g>
</g>
<g>
</g>
<g>
</g>
<g>
</g>
<g>
</g>
<g>
</g>
<g>
</g>
<g>
</g>
<g>
</g>
<g>
</g>
<g>
</g>
<g>
</g>
<g>
</g>
<g>
</g>
<g>
</g>
</svg>
