<svg xmlns="http://www.w3.org/2000/svg" x="0px" y="0px"
     width="73" height="73"
     viewBox="0 0 26 26"
     style=";fill:#000000;"
     class="icon icons8-java-bean"><g id="surface1"><path style=" " d="M 18.28125 0.125 C 11.808594 0.125 10.917969 6.121094 8.53125 8.59375 C 6.179688 11.03125 0.125 12.832031 0.125 18.4375 C 0.125 19.734375 0.714844 21.113281 2.21875 22.5625 C 2.425781 22.765625 2.65625 22.949219 2.90625 23.09375 C 7.78125 27.027344 14.9375 25.65625 20.28125 20.125 C 25.613281 14.605469 27.277344 7.628906 22.59375 2.5 C 22.457031 2.296875 22.269531 2.109375 22.09375 1.9375 C 20.753906 0.644531 19.492188 0.125 18.28125 0.125 Z M 18.28125 1.84375 C 19.128906 1.84375 20.003906 2.285156 20.9375 3.1875 C 21.695313 3.921875 21.871094 5.335938 21.4375 7.15625 C 21.425781 7.210938 21.421875 7.257813 21.40625 7.3125 C 21.351563 7.527344 21.257813 7.746094 21.1875 7.96875 C 20.355469 10.605469 18.539063 13.464844 16.0625 16.03125 C 12.5625 19.65625 8.382813 22 5.40625 22 C 4.519531 22 3.855469 21.777344 3.40625 21.34375 C 2.347656 20.320313 1.8125 19.367188 1.8125 18.4375 C 1.8125 15.335938 4.367188 13.648438 6.8125 12.03125 C 7.921875 11.292969 8.953125 10.605469 9.75 9.78125 C 10.566406 8.933594 11.171875 7.878906 11.8125 6.75 C 13.25 4.226563 14.613281 1.84375 18.28125 1.84375 Z M 20.25 3.78125 C 18.507813 3.730469 14.9375 4.722656 13.625 8.34375 C 13.199219 9.519531 12.84375 10.902344 11.78125 12 C 10.757813 13.0625 8.996094 13.835938 7.90625 14.375 C 5.105469 15.761719 4.046875 18.722656 4.25 20.71875 C 4.863281 18.464844 7.097656 17.117188 8.9375 16.21875 C 10.148438 15.628906 12.164063 14.945313 13.46875 13.59375 C 14.859375 12.15625 15.082031 10.460938 15.5625 9.1875 C 16.214844 7.457031 18.304688 4.90625 20.25 3.78125 Z "></path></g></svg>